# xmcd
#
# Track frame offsets:
#	180
#	13509
#	28681
#	44425
#	54101
#	65991
#	82467
#	94704
#	110021
#	120607
#	133897
#	145655
#	161114
#	179640
#
# Disc length: 2541 seconds
#
# Revision: 1
# Processed by: cddbd v1.4PL0 Copyright (c) Steve Scherf et al.
# Submitted via: audiograbber 1.81.03
#
DISCID=cf09eb0e
DTITLE=West Side Ceilidh Band - A Hebridean Ceilidh Dance
DYEAR=1996
DGENRE=
TTITLE0=The Hiking Song - Dear Old Donegal
TTITLE1=Iain MacLachlan of Creagorry - Calum Beag - Hiro Hiram - Iain MacLachla
TTITLE1=n of Creagorry
TTITLE2=Flett From Flotta - Sherrif AC MacPherson of the Glasgow Highland Club
TTITLE3=Sabhal Iain 'ic Uisdean - Kennag Mor - Orange and Blue - Devil in the K
TTITLE3=itchen
TTITLE4=An Teid Thu Leum a' Mhairi - Fagail Glaschu - Teann a Nall - A Ribhinn 
TTITLE4=Og
TTITLE5=Dashing White Sargeant - Hamish's Tune - Dornoch Links
TTITLE6=The Garden Where The Praties Grow - MacNamara's Band - Bonnie Jeannie M
TTITLE6=acColl
TTITLE7=Father John MacMillan of Barra - Rodigan's Welcome to Thomas Uisdean Fr
TTITLE7=aser
TTITLE8=Bonnie Dundee - Muckin' o' Geordie's Byre - Atholl Highlanders
TTITLE9=Katie Jane of Lewis - Fear a' Bhige - Captain Horne - Keel Row
TTITLE10=Ballochyle - Bonawe Highlanders
TTITLE11=51st Division at Beaumont Hamel - 93rd at Modder River
TTITLE12=Allan MacPherson of Mosspark - The Banks of the Allen - Kenny Gillies 
TTITLE12=of Portnalong - Wee Tod
TTITLE13=Balaich an lasgaich - Morag of Dunvegan - Carlabhagh
EXTD=
EXTT0=
EXTT1=
EXTT2=
EXTT3=
EXTT4=
EXTT5=
EXTT6=
EXTT7=
EXTT8=
EXTT9=
EXTT10=
EXTT11=
EXTT12=
EXTT13=
PLAYORDER=
